<svg width="1920" height="749" viewBox="0 0 1920 749" fill="none" xmlns="http://www.w3.org/2000/svg">
<mask id="mask0_1_40" style="mask-type:alpha" maskUnits="userSpaceOnUse" x="0" y="0" width="1920" height="749">
<path d="M1920 0H0V748.5C0 748.5 118.474 734.415 416 679C641.5 637 1043.5 649.5 1379.5 715C1660.22 769.725 1920 657 1920 657V0Z" fill="#F8F3FA"/>
</mask>
<g mask="url(#mask0_1_40)">
<g opacity="0.2">
<path d="M1930 1722L1930 -961L-63.9999 -961L-64 1722L1930 1722Z" fill="url(#paint0_linear_1_40)"/>
<path d="M1532.19 804.008C1510.07 607.024 1595.1 385.361 1390.85 349.923C1186.6 314.485 1368.47 -54.8047 1368.47 -54.8047L1930 64.8367L1930 949.66C1777.34 952.573 1547.11 935.002 1532.19 804.008Z" fill="url(#paint1_linear_1_40)"/>
<path d="M2216.28 1542L862.002 1542L862.002 605.252C890.464 629.559 921.015 652.268 953.435 673.217C1139.53 792.71 1179.75 342.771 1580.17 407.528C1980.58 472.284 1680.61 731.063 1601.67 903.517C1522.73 1075.97 1693.6 1274.78 2097.63 1331.79C2317.35 1362.88 2288.39 1460.12 2216.28 1542Z" fill="url(#paint2_linear_1_40)"/>
<path d="M156.269 374.876C-12.487 390.77 -20.999 554.694 -207.571 571.673C-342.476 583.964 -481.737 517.377 -582 455.48L-582 -961L2504 -961L2504 213.469C2375.33 174.721 2166.49 125.361 1930.53 142.785C1325.48 187.209 1111.89 628.585 724.297 601.832C454.387 583.224 360.557 355.675 156.269 374.876Z" fill="white"/>
<path d="M156.269 374.876C-12.487 390.77 -20.999 554.694 -207.571 571.673C-342.476 583.964 -481.737 517.377 -582 455.48L-582 -961L2504 -961L2504 213.469C2375.33 174.721 2166.49 125.361 1930.53 142.785C1325.48 187.209 1111.89 628.585 724.297 601.832C454.387 583.224 360.557 355.675 156.269 374.876Z" fill="url(#paint3_linear_1_40)"/>
</g>
</g>
<defs>
<linearGradient id="paint0_linear_1_40" x1="2264.16" y1="465.37" x2="-671.308" y2="88.784" gradientUnits="userSpaceOnUse">
<stop stop-color="#3176FF"/>
<stop offset="1" stop-color="white"/>
</linearGradient>
<linearGradient id="paint1_linear_1_40" x1="1930" y1="447.57" x2="1293.88" y2="447.57" gradientUnits="userSpaceOnUse">
<stop stop-color="#3176FF"/>
<stop offset="1" stop-color="white" stop-opacity="0"/>
</linearGradient>
<linearGradient id="paint2_linear_1_40" x1="2269.08" y1="971.558" x2="862.002" y2="971.558" gradientUnits="userSpaceOnUse">
<stop stop-color="#3176FF"/>
<stop offset="1" stop-color="white" stop-opacity="0"/>
</linearGradient>
<linearGradient id="paint3_linear_1_40" x1="2504" y1="-179" x2="-582" y2="-179" gradientUnits="userSpaceOnUse">
<stop stop-color="#3176FF"/>
<stop offset="1" stop-color="white" stop-opacity="0"/>
</linearGradient>
</defs>
</svg>
